<?xml version="1.0" encoding="utf-8"?>
<!-- Generator: Adobe Illustrator 19.0.0, SVG Export Plug-In . SVG Version: 6.00 Build 0)  -->
<svg version="1.1" id="Layer_1" xmlns="http://www.w3.org/2000/svg" xmlns:xlink="http://www.w3.org/1999/xlink" x="0px" y="0px"
	 viewBox="0 0 489.8 197.1" style="enable-background:new 0 0 489.8 197.1;" xml:space="preserve">
<style type="text/css">
	.st0{fill:#1C1C82;}
	.st1{fill:#FFFFFF;}
</style>
<g id="XMLID_27_">
	<path id="XMLID_57_" class="st0" d="M261.8,0.3C318.7,3,373.9,10.9,423.5,31.8c24.4,11.1,53.7,26.5,64.1,53.8c4,12.1,2.3,25.3-4,36
		c-8.3,14.2-22.4,25.3-36.1,33.4c-39.5,22.3-83.9,32.5-130.3,38.2c-20.4,2.3-40.8,3.7-61.9,3.9l-33-0.5
		c-35.8-1.8-70.5-6.4-103.8-14.4C84.8,173.3,52,162.2,24,139.7C7.3,125.5-5.4,104.9,2.4,83.3c12.1-30.3,44.9-45,72-56.2
		C123.4,8.8,177.4,1.6,233,0L261.8,0.3z"/>
	<path id="XMLID_56_" class="st1" d="M425.6,42.8c19.8,8.8,41.8,20.5,53,41.2c6.4,11.7,3.5,26.9-4.2,37.3
		c-14.2,18.8-34.7,28.2-54.3,36.9c-58.2,22.3-123.1,28.6-189.8,27.3c-60.2-2.4-119.1-10.4-171.1-33.7c-19.4-9.8-42.7-23.1-50.3-45.5
		c-4.1-15.4,2.8-29.4,13.6-39.6C49.8,42.9,83.1,33,116.8,24.5l23.6-4.7l31.7-4.5l17.2-1.9l38.5-2c59.4-1.3,118,5.3,171.5,21.6
		C408,36.1,417,38.8,425.6,42.8"/>
	<path id="XMLID_55_" class="st0" d="M383.8,33.6c12.5,3.2,24.9,7.1,36.9,11.7C440.5,54,463,63.5,475.1,84c6.7,10.8,4.4,26-3.3,35.6
		c-16.8,20.5-40,29.7-62.7,38.1c-38.2,12.4-79,18.9-121.4,21.1l-28.9,1c-68.9,0.4-136.5-6.6-195.8-31.3
		c-19.6-9.2-44.2-21.9-51.2-44.8c-4-16,6.7-29.4,18.7-39.2c21.6-16,46.5-24.2,71.9-31.3C190.7,11.1,295.2,11.4,383.8,33.6"/>
	<path id="XMLID_54_" class="st1" d="M149.4,62c1.2,2.6,0.5,5.9-1.6,7.9c-1.2,0.8-2.6,1.9-4.3,1.9c-2.8,0-5.5-1.6-6.5-4.1
		c-0.5-2.2,0.2-4.1,0.1-6.1c-5.6-2.4-12.3-1.1-17.8,0.5c-15.4,5.3-26,20.9-28.3,36.3c-0.5,7.6,0,16.4,7.2,20.8
		c9.2,4.3,20.3,1.2,28.3-3.5c1.7-1,3.1-3.2,5.5-2.5c0.9,0.5-0.2,1.6-0.6,2.3c-8.7,10-22,12.4-34.8,10.2c-7.2-1.8-14.9-7.5-17.3-15
		C74.5,94.9,83,78.8,95.2,68.7c12.5-9.8,27.7-14.6,44.7-12.5C143.6,56.7,147.8,58.1,149.4,62"/>
	<path id="XMLID_53_" class="st1" d="M319.3,60.9c1.4,3.6,0.1,7.6-2.2,10.3c-1.8,1.8-4.6,2.5-7.1,1.6c-2.2-1.3-2.9-4.1-2.7-6.4
		c0.1-3.2,2.1-6.4,5-7.9C314.9,57.2,318.2,58.2,319.3,60.9"/>
	<path id="XMLID_52_" class="st1" d="M191.7,77.2c0.9,1.2-0.3,2.8-0.7,4.1c-3.6,11.4-7.5,22.8-11,34.3c-0.1,0.8-0.5,2.2,0.3,2.9
		c2.5,0.4,4-2.3,5.9-3.8c2.2-1.3,2.8-5.9,5.9-4.1c-4.2,6.6-9.1,15.7-18,16c-2.6-0.1-5.6-0.4-6.5-3.3c-1-1.7,0.2-4.4-1-5.8
		c-4.9,4.3-9.8,8.8-16.1,9.8c-3.4-0.5-7-1.4-8.8-4.7c-3.1-6.9-2.3-15.1,0.4-22c6.2-12.1,18-23.3,32.3-23.2c2.2,0.2,4.3,1.1,6,2.6
		c0.7,0.2,1.1-0.7,1.4-1c-0.1-0.8,0.7-1.5,1.3-1.7C186,76.7,188.8,77.2,191.7,77.2"/>
	<path id="XMLID_51_" class="st1" d="M223.2,78.2c3.1,5.2-0.7,10.4-1.1,15.5l0.3,0.6l1-0.4c4.3-5.4,7-12.8,13.4-16
		c2.2-0.2,4.9-1,6.9,0.2c1.9,1.9,3,4.3,2.5,7c-0.7,2.3-2,5.1-4.3,5.9c-1.1,0.5-2.5,0.2-3.6-0.2c-2.4-1-2.5-3.7-3.2-5.8
		c-1.7-0.5-2.5,1.4-3.7,2.2c-9.4,11.2-13.8,24.7-19,37.8l-0.7,0.4c-2.8-0.6-6,0.7-8.3-0.5c3.2-12.6,7.4-24.7,10.9-37.1
		c-0.1-1,0.3-2.3-0.8-2.9c-1.9-0.3-3.4,1.7-4.8,2.6c-1.7,2-2.9,4.3-5,5.6l-1.3-0.3c1-3.5,4.3-6,6.3-8.6c4-3.7,7.7-8.7,13.6-6.9
		L223.2,78.2z"/>
	<path id="XMLID_34_" class="st1" d="M270.5,78.2c4,4.8-0.1,10.8-0.5,16l0.3,0.7c2-1.4,3.2-4.4,5.2-6.4c3.1-4.8,7.1-11.4,13.8-10.5
		c1.5,0.2,3.1,0.6,3.8,2.2c0.7,1.8,1.6,3.7,1,5.9c-0.9,2-1.9,4.5-4.1,5.5c-1.3,0.4-2.9,0.4-4.1-0.1c-1.5-1.2-2.5-3.1-2.5-5.2
		c-0.4-1.1-1.4-0.4-2-0.2c-7.1,6.1-10.8,14.6-14.4,22.8c-2.7,5.4-4.4,11.3-6.9,16.8c-2.8,0.5-5.5,0.3-8.3,0.1
		c-1.2-0.5-0.3-2-0.1-2.9c3.5-11.6,7.1-23.2,10.5-34.9c0.1-1-0.1-2.1-1-2.6c-4.4,0.7-6.4,5.8-9.7,8.1c-0.5,0-1.3,0.1-1.4-0.6
		c3.6-5.7,8.6-11.6,14.6-14.8C266.2,77.4,268.9,77,270.5,78.2"/>
	<path id="XMLID_33_" class="st1" d="M369.1,84c2,3.5,1.3,7.7-0.6,11.1c-7.1,10.6-19.7,11-31.4,12.4c-2.1,2.1-1.4,5.9-1.1,8.8
		c0.4,1.9,1.8,3.7,3.6,4.9c4.1,2.3,9.4,0.7,13.6-0.2c3.2-2.1,6.6-4.1,9.5-6.8c0.6-0.1,1,0.1,1.4,0.4c-4,8.9-13.3,14.5-22.6,15.2
		c-6.1-0.2-12-2.2-15.2-7.6c-4.4-7.9-2.5-18.5,1.1-26.2c5.6-10.3,16.1-18.2,28.2-18.4C361.3,76.7,365.6,80,369.1,84"/>
	<path id="XMLID_32_" class="st1" d="M314.6,78.9c0.9,1.1-0.5,2.2-0.4,3.3c-3.7,11.1-7.3,22.1-11.1,33c-0.2,1.7-1.1,4.6,0.7,5.8
		c2.8-1,5.2-3.4,7.5-5.3c1.3-1.1,2.4-3.8,4.6-2.7v1c-4.5,6.8-10.7,13.5-18.9,14.6c-1.7-0.1-3.4-0.4-4.6-1.4c-3.2-3.3-0.7-8.1,0-11.7
		c4-12.2,8.5-24.3,13.1-36.3c2.4-1,5.8-0.5,8.4-0.5L314.6,78.9z"/>
	<path id="XMLID_31_" class="st1" d="M397.4,80c3.5,5-0.5,10.6-1,15.9l0.7,0.6c5.8-6.7,10.2-20.4,21.6-16c1.3,1.6,1.9,3.4,2,5.5
		c-0.3,2.9-1.7,5.8-4.5,7.1c-1.3,0.4-2.5,0.4-3.7,0c-2.3-1.4-2.5-3.8-3.3-5.9c-3.9,1.6-6.1,5.7-8.5,8.8c-5.9,9.7-9.8,20.4-14,30.9
		c-2.2,1.6-4.9,0.3-7.8,0.7c-0.9,0.4-1.9-0.5-1.4-1.4c3.8-12,7.3-24.1,10.9-36c0.1-1.2,0.1-2.6-1.1-3.1c-4.1,1-5.9,5.2-9,7.9
		c-0.6,0.2-1.5,0.4-2-0.1c3.7-5.7,8.2-11.8,14.4-15C392.8,78.7,395.7,78.3,397.4,80"/>
	<path id="XMLID_19_" class="st0" d="M177.7,82.2c2,6.4-2,12.5-4.2,18.2c-3.5,7.6-9.2,15.3-17.7,17.7c-1.4,0.1-2.6-0.5-3.3-1.7
		c-1.7-5.2,0.2-11.2,1.9-16.3c3.5-7.8,9.7-16.3,18-19.9C174.5,80.2,176.7,80.1,177.7,82.2"/>
	<path id="XMLID_29_" class="st0" d="M358.7,82.9c2.1,2.8,1.6,6.4,0.4,9.4c-4.6,7.3-12.2,12.2-21.1,10.8c-0.5-1.5,0.2-3.2,0.5-4.7
		c2.2-6.8,6.8-15.3,14.7-16.8C355.2,81.4,357.2,81.7,358.7,82.9"/>
</g>
</svg>
